# xmcd CD database file
#
# Track frame offsets:
#	150
#	41253
#	55079
#	74697
#	92961
#	129965
#	138803
#	156786
#	181046
#	208494
#	252164
#	306864
#
# Disc length: 4265 seconds
#
# Revision: 0
# Processed by: cddbd v1.5.1PL0 Copyright (c) Steve Scherf et al.
# Submitted via: CDex 1.51
#
DISCID=a510a70c
DTITLE=Marvin Gaye - The Man, The Music, The Legend
DYEAR=1998
DGENRE=Blues
TTITLE0=Rockin´ After Midnight
TTITLE1=Third World Girl
TTITLE2=I Heard it Through The Grapevine
TTITLE3=Come Get To This
TTITLE4=Let´s Get It On
TTITLE5=God is my Friend
TTITLE6=What´s Goin´ On
TTITLE7=Inner City Blues (Make Me Wanna Holler)
TTITLE8=Joy (Dedication To My Father)
TTITLE9=Distant Lover
TTITLE10=Sexual Healing
TTITLE11=Interlude - African Dance
EXTD=YEAR: 1998
EXTT0=
EXTT1=
EXTT2=
EXTT3=
EXTT4=
EXTT5=
EXTT6=
EXTT7=
EXTT8=
EXTT9=
EXTT10=
EXTT11=
PLAYORDER=
